<svg width="14" height="21" viewBox="0 0 14 21" fill="none" xmlns="http://www.w3.org/2000/svg">
<path d="M7.00224 3C4.13539 3 3.29693 3.00303 3.13396 3.0169C2.54563 3.06707 2.17954 3.16211 1.78069 3.36583C1.47333 3.52242 1.23092 3.70392 0.991679 3.95836C0.55598 4.42236 0.291919 4.99321 0.196326 5.67178C0.149854 6.0012 0.136332 6.06838 0.133586 7.75104C0.132532 8.31192 0.133586 9.05009 0.133586 10.0402C0.133586 12.979 0.136752 13.8383 0.150487 14.0052C0.198018 14.5925 0.287797 14.962 0.477922 15.3662C0.841273 16.1399 1.53522 16.7207 2.35276 16.9375C2.63583 17.0122 2.94848 17.0534 3.34985 17.0729C3.51991 17.0805 5.25321 17.0859 6.98756 17.0859C8.72192 17.0859 10.4563 17.0838 10.6221 17.0751C11.0869 17.0527 11.3567 17.0155 11.6551 16.9364C12.4779 16.7186 13.1592 16.1464 13.5299 15.3619C13.7164 14.9674 13.8109 14.5838 13.8537 14.0272C13.863 13.9058 13.8669 11.9708 13.8669 10.0384C13.8669 8.1056 13.8627 6.17415 13.8534 6.05278C13.8101 5.48713 13.7155 5.10678 13.5231 4.70475C13.3652 4.37566 13.1898 4.12989 12.9353 3.8786C12.481 3.43345 11.9254 3.16254 11.2634 3.06458C10.9426 3.01701 10.8787 3.00292 9.23726 3H7.00224Z" fill="#45403D"/>
<path d="M4.89261 4.74032L4.89263 4.74032C5.43942 4.71482 5.61535 4.7086 7.00121 4.70859L4.89261 4.74032ZM4.89261 4.74032C4.33935 4.76629 3.95719 4.85642 3.62097 4.99044L4.89261 4.74032ZM1.8269 7.8796L1.8269 7.87957C1.85177 7.31341 1.9397 6.92232 2.07056 6.57823C2.20585 6.22246 2.3874 5.91851 2.6818 5.61699L1.8269 7.8796ZM1.8269 7.8796C1.80244 8.43996 1.79606 8.6201 1.79606 10.042C1.79606 11.4638 1.80223 11.6433 1.827 12.2037L1.82701 12.2038M1.8269 7.8796L1.82701 12.2038M1.82701 12.2038C1.85242 12.7701 1.94023 13.161 2.07063 13.5049L2.1641 13.4695M1.82701 12.2038L2.1641 13.4695M2.1641 13.4695L2.07063 13.5049C2.20562 13.8609 2.38719 14.1649 2.6815 14.4664M2.1641 13.4695L2.6815 14.4664M3.65731 15.0006C3.9822 15.13 4.35337 15.2182 4.89687 15.2437M3.65731 15.0006C3.32168 14.8669 3.03679 14.6877 2.75307 14.3965C2.46913 14.1057 2.29467 13.8137 2.16414 13.4695L4.89687 15.2437M3.65731 15.0006L3.6203 15.0935C3.62031 15.0935 3.62031 15.0935 3.62031 15.0935M3.65731 15.0006L3.62031 15.0935M4.89687 15.2437C5.44155 15.2691 5.61548 15.2753 7.00216 15.2753M4.89687 15.2437L7.00216 15.2753M2.6815 14.4664C2.97558 14.7681 3.27246 14.9549 3.62031 15.0935M2.6815 14.4664L10.3838 4.99041C10.7323 5.12886 11.0283 5.31528 11.3227 5.61698M3.62031 15.0935C3.95674 15.2275 4.339 15.3176 4.89218 15.3436L4.89221 15.3436C5.4392 15.3691 5.61495 15.3753 7.00216 15.3753C8.38959 15.3753 8.56491 15.3691 9.1119 15.3436L9.11193 15.3436C9.66521 15.3176 10.0478 15.2275 10.3842 15.0935M10.3842 15.0935C10.3842 15.0935 10.3842 15.0935 10.3842 15.0935L10.3472 15.0006L10.3842 15.0935ZM10.3842 15.0935C10.7322 14.9549 11.0287 14.7681 11.3227 14.4664M11.3227 14.4664C11.6171 14.1649 11.7987 13.8609 11.934 13.5051L11.9341 13.5049C12.0638 13.161 12.1517 12.7701 12.1776 12.204L12.1776 12.2038C12.2022 11.6434 12.2086 11.4638 12.2086 10.042C12.2086 8.6201 12.2022 8.44006 12.1776 7.87969L12.1776 7.87949C12.1517 7.3132 12.0638 6.92239 11.9341 6.57859L11.934 6.57835C11.7987 6.22246 11.6171 5.9185 11.3227 5.61698M11.3227 14.4664C11.3227 14.4664 11.3227 14.4664 11.3228 14.4663L11.2512 14.3965M11.3227 14.4664L11.2512 14.3965M11.3227 5.61698L11.2512 5.68682M11.3227 5.61698C11.3227 5.61697 11.3227 5.61696 11.3227 5.61695L11.2512 5.68682M11.2512 5.68682C11.5352 5.9777 11.7097 6.26968 11.8405 6.61389L7.0028 4.70859V4.80859C8.38855 4.8086 8.56203 4.81482 9.1065 4.84021C9.65011 4.86572 10.0214 4.95393 10.3469 5.08335C10.6831 5.2169 10.9671 5.39571 11.2512 5.68682ZM11.2512 14.3965C11.5352 14.1057 11.7097 13.8137 11.8405 13.4696M11.2512 14.3965L11.8405 13.4696M11.8405 13.4696C11.966 13.1367 12.0522 12.7563 12.0777 12.1994L11.8405 13.4696ZM6.44436 5.85185L6.44436 5.85052C5.58068 5.85196 5.39616 5.85878 4.94413 5.87971C4.4575 5.90262 4.19813 5.98525 4.02837 6.05312L4.0283 6.05314C3.80292 6.14306 3.64448 6.24863 3.47559 6.42173L3.47559 6.42173L6.44436 5.85185ZM6.44436 5.85185L6.54488 5.85169C6.63373 5.85155 6.72924 5.85159 6.83242 5.85164C6.88701 5.85167 6.94376 5.85169 7.0028 5.85169C8.36577 5.85169 8.52551 5.85671 9.0615 5.88167C9.54804 5.90448 9.80735 5.98729 9.97727 6.05491M6.44436 5.85185L9.97727 6.05491M9.97727 6.05491C10.2025 6.14459 10.3606 6.25011 10.5295 6.42323L10.5295 6.42325C10.6984 6.59637 10.8017 6.75905 10.8897 6.99076L9.97727 6.05491ZM7.00216 15.2753C8.38906 15.2753 8.56257 15.2691 9.10724 15.2437L7.00216 15.2753ZM7.00121 4.80859C5.61588 4.8086 5.44176 4.81482 4.89729 4.84021L7.00121 4.80859ZM3.62092 4.99046C3.27293 5.12896 2.97604 5.31533 2.68184 5.61695L3.62092 4.99046ZM2.94595 7.92985C2.96823 7.43035 3.04921 7.16387 3.1154 6.98917L11.1888 10.0408C11.1888 11.4374 11.1835 11.6031 11.159 12.1548L11.0591 12.1504C11.0591 12.1504 11.0591 12.1504 11.0591 12.1504C11.0368 12.6499 10.9559 12.9163 10.8897 13.0908L10.8897 13.0908C10.8019 13.3224 10.6985 13.4845 10.5295 13.6576L10.5295 13.6576C10.3605 13.8308 10.2026 13.9363 9.97728 14.0259L9.97709 14.026C9.80758 14.0939 9.54813 14.1765 9.0615 14.1993C8.52558 14.2243 8.36571 14.2297 7.0028 14.2297C5.63983 14.2297 5.48003 14.2243 4.94415 14.1993C4.45761 14.1763 4.19828 14.0935 4.02823 14.0258C3.8029 13.9361 3.64448 13.8306 3.47559 13.6575C3.30664 13.4843 3.20337 13.3221 3.11538 13.0903C3.0492 12.9159 2.96813 12.6494 2.94595 12.1499C2.92158 11.6005 2.91668 11.4366 2.91668 10.0394C2.91668 8.64232 2.92158 8.47923 2.94595 7.92985ZM7.0028 7.2544C5.49709 7.2544 4.2805 8.50485 4.2805 10.042C4.2805 11.5791 5.49712 12.829 7.0028 12.829C8.5085 12.829 9.72468 11.5791 9.72468 10.042C9.72468 8.50487 8.50853 7.2544 7.0028 7.2544ZM7.0028 8.3975C7.88526 8.3975 8.60491 9.13137 8.60491 10.042C8.60491 10.9524 7.88526 11.6864 7.0028 11.6864C6.12024 11.6864 5.4007 10.9524 5.4007 10.042C5.4007 9.13137 6.12024 8.3975 7.0028 8.3975Z" fill="white" stroke="white" stroke-width="0.2"/>
</svg>
