<svg width="20" height="20" viewBox="0 0 20 20" fill="none" xmlns="http://www.w3.org/2000/svg">
<rect width="20" height="20" fill="#DEDEDE"/>
<rect width="1440" height="749" transform="translate(-140 -312)" fill="#F6F5F4"/>
<g filter="url(#filter0_d_1_6)">
<rect x="-20" y="-141" width="379" height="181" rx="24" fill="white" shape-rendering="crispEdges"/>
<path d="M17.1834 7.04158C16.3084 3.19159 12.95 1.45825 10 1.45825C10 1.45825 10 1.45825 9.99168 1.45825C7.05002 1.45825 3.68335 3.18325 2.80835 7.03325C1.83335 11.3333 4.46669 14.9749 6.85002 17.2666C7.73335 18.1166 8.86668 18.5416 10 18.5416C11.1334 18.5416 12.2667 18.1166 13.1417 17.2666C15.525 14.9749 18.1584 11.3416 17.1834 7.04158ZM10 11.2166C8.55002 11.2166 7.37502 10.0416 7.37502 8.59159C7.37502 7.14158 8.55002 5.96658 10 5.96658C11.45 5.96658 12.625 7.14158 12.625 8.59159C12.625 10.0416 11.45 11.2166 10 11.2166Z" fill="#45403D"/>
</g>
<defs>
<filter id="filter0_d_1_6" x="-40" y="-157" width="419" height="221" filterUnits="userSpaceOnUse" color-interpolation-filters="sRGB">
<feFlood flood-opacity="0" result="BackgroundImageFix"/>
<feColorMatrix in="SourceAlpha" type="matrix" values="0 0 0 0 0 0 0 0 0 0 0 0 0 0 0 0 0 0 127 0" result="hardAlpha"/>
<feOffset dy="4"/>
<feGaussianBlur stdDeviation="10"/>
<feComposite in2="hardAlpha" operator="out"/>
<feColorMatrix type="matrix" values="0 0 0 0 0 0 0 0 0 0 0 0 0 0 0 0 0 0 0.14 0"/>
<feBlend mode="normal" in2="BackgroundImageFix" result="effect1_dropShadow_1_6"/>
<feBlend mode="normal" in="SourceGraphic" in2="effect1_dropShadow_1_6" result="shape"/>
</filter>
</defs>
</svg>
